<svg width="484" height="193" viewBox="0 0 484 193" fill="none" xmlns="http://www.w3.org/2000/svg">
<g opacity="0.04">
<path d="M152.791 119.802V152.188H126.447V189.577H85.8789V152.188H3.95148L0 121.119C48.9984 48.9741 76.4832 8.60119 82.4543 0L126.447 3.94952V119.802H152.791ZM39.5148 119.802H86.4058V50.2906L39.5148 119.802Z" fill="#333333"/>
<path d="M192.003 25.5402C203.419 9.04002 221.683 0.78991 246.797 0.78991C271.911 0.78991 289.473 8.51342 299.484 23.9604C309.67 39.2319 314.763 62.6658 314.763 94.2619C314.763 160.087 291.23 193 244.163 193C220.103 193 202.541 185.101 191.477 169.303C180.588 153.329 175.144 129.632 175.144 98.2115C175.144 66.2642 180.764 42.0405 192.003 25.5402ZM266.028 47.3943C262.164 38.2665 255.227 33.7026 245.217 33.7026C235.206 33.7026 228.094 38.3542 223.879 47.6576C219.839 56.9609 217.82 73.3734 217.82 96.895C217.82 119.714 219.927 135.951 224.142 145.606C228.357 155.26 235.382 160.087 245.217 160.087C255.052 160.087 261.901 155.26 265.764 145.606C269.804 135.951 271.823 119.276 271.823 95.5784C271.823 72.4079 269.892 56.3465 266.028 47.3943Z" fill="#333333"/>
<path d="M484 119.802V152.188H457.657V189.577H417.088V152.188H335.161L331.209 121.119C380.208 48.9741 407.692 8.60119 413.664 0L457.657 3.94952V119.802H484ZM370.724 119.802H417.615V50.2906L370.724 119.802Z" fill="#333333"/>
</g>
</svg>
