<svg width="596" height="126" viewBox="0 0 596 126" fill="none" xmlns="http://www.w3.org/2000/svg">
<g opacity="0.1">
<path d="M54.759 23.247C50.905 21.935 46.313 21.279 40.983 21.279C27.453 21.279 20.688 31.324 20.688 51.414C20.688 70.274 27.658 79.704 41.598 79.704C45.206 79.704 48.937 79.007 52.791 77.613C56.727 76.137 59.761 74.661 61.893 73.185L64.968 71.094L71.733 82.164C71.405 82.492 70.913 82.984 70.257 83.64C69.601 84.214 68.166 85.28 65.952 86.838C63.82 88.396 61.565 89.749 59.187 90.897C56.809 92.045 53.816 93.111 50.208 94.095C46.682 95.079 43.115 95.571 39.507 95.571C26.961 95.571 17.244 91.881 10.356 84.501C3.54997 77.039 0.146973 66.215 0.146973 52.029C0.146973 37.679 3.87797 26.404 11.34 18.204C18.802 10.004 28.888 5.904 41.598 5.904C46.026 5.904 50.618 6.396 55.374 7.38C60.13 8.282 63.779 9.225 66.321 10.209L70.257 11.685L69.642 35.055H57.588L54.759 23.247Z" fill="#333333"/>
<path d="M114.21 26.445C124.132 26.445 131.758 29.356 137.088 35.178C142.5 40.918 145.206 49.077 145.206 59.655C145.206 70.643 142.213 79.335 136.227 85.731C130.323 92.127 122.369 95.325 112.365 95.325C91.4553 95.325 81.0003 84.05 81.0003 61.5C81.0003 50.512 83.9933 41.943 89.9793 35.793C95.9653 29.561 104.042 26.445 114.21 26.445ZM113.595 40.59C108.921 40.59 105.477 42.107 103.263 45.141C101.131 48.175 100.065 53.423 100.065 60.885C100.065 67.937 101.09 73.103 103.14 76.383C105.19 79.581 108.47 81.18 112.98 81.18C117.49 81.18 120.811 79.581 122.943 76.383C125.075 73.185 126.141 67.814 126.141 60.27C126.141 53.628 125.116 48.708 123.066 45.51C121.098 42.23 117.941 40.59 113.595 40.59Z" fill="#333333"/>
<path d="M155.021 28.659L180.482 27.675L181.343 36.162C182.245 35.424 183.434 34.563 184.91 33.579C186.386 32.513 189.092 31.119 193.028 29.397C197.046 27.593 200.695 26.691 203.975 26.691C209.879 26.691 214.389 28.659 217.505 32.595C220.703 36.449 222.302 41.779 222.302 48.585V81.18C223.368 81.508 224.885 82.041 226.853 82.779C228.821 83.517 230.174 84.009 230.912 84.255V94.095H197.702V84.255L204.221 81.18V51.414C204.221 48.544 203.442 46.207 201.884 44.403C200.408 42.517 198.399 41.574 195.857 41.574C193.561 41.574 191.306 42.189 189.092 43.419C186.96 44.567 185.361 45.715 184.295 46.863L182.696 48.585V81.18L189.092 84.255V94.095H155.021V84.255L164.492 81.18V40.959L155.021 38.499V28.659Z" fill="#333333"/>
<path d="M240.113 107.625C240.113 104.509 241.179 101.721 243.311 99.261C245.443 96.801 247.575 95.12 249.707 94.218L253.028 92.865C252.454 92.783 251.757 92.619 250.937 92.373C250.117 92.127 249.01 91.307 247.616 89.913C246.304 88.519 245.648 86.797 245.648 84.747C245.648 82.205 247.78 77.572 252.044 70.848C245.73 66.666 242.573 60.27 242.573 51.66C242.573 43.542 245.279 37.31 250.691 32.964C256.185 28.618 263.319 26.445 272.093 26.445C277.587 26.445 282.425 27.429 286.607 29.397L307.763 28.905V38.745L297.677 40.467C297.677 40.549 297.882 41.123 298.292 42.189C298.702 43.173 299.03 44.362 299.276 45.756C299.604 47.15 299.768 48.626 299.768 50.184C299.768 58.712 297.103 65.067 291.773 69.249C286.443 73.349 279.268 75.399 270.248 75.399C269.264 75.399 268.28 75.358 267.296 75.276C266.394 75.194 265.615 75.112 264.959 75.03C264.385 74.866 264.057 74.784 263.975 74.784L263.483 83.025H281.687C289.559 83.025 295.627 84.665 299.891 87.945C304.155 91.225 306.287 95.94 306.287 102.09C306.287 109.142 303.376 114.8 297.554 119.064C291.814 123.328 283.245 125.46 271.847 125.46C261.515 125.46 253.643 124.107 248.231 121.401C242.819 118.695 240.113 114.103 240.113 107.625ZM271.478 39.114C264.508 39.114 261.023 43.009 261.023 50.799C261.023 58.999 264.303 63.099 270.863 63.099C274.635 63.099 277.3 62.115 278.858 60.147C280.498 58.179 281.318 55.063 281.318 50.799C281.318 43.009 278.038 39.114 271.478 39.114ZM276.767 96.555H263.852C263.442 96.719 262.909 97.006 262.253 97.416C261.597 97.826 260.695 98.728 259.547 100.122C258.481 101.516 257.948 102.992 257.948 104.55C257.948 107.502 259.137 109.47 261.515 110.454C263.975 111.438 267.911 111.93 273.323 111.93C278.899 111.93 282.917 111.274 285.377 109.962C287.837 108.65 289.067 106.518 289.067 103.566C289.067 100.942 288.083 99.097 286.115 98.031C284.229 97.047 281.113 96.555 276.767 96.555Z" fill="#333333"/>
<path d="M316.156 28.659L341.617 27.675L342.724 36.162C343.38 35.424 344.282 34.522 345.43 33.456C346.578 32.39 348.628 30.955 351.58 29.151C354.614 27.347 357.361 26.445 359.821 26.445C361.789 26.445 363.675 26.65 365.479 27.06C367.365 27.388 368.759 27.757 369.661 28.167L370.891 28.659L369.907 52.029H359.206L357.361 41.574C355.229 41.574 353.056 42.148 350.842 43.296C348.628 44.444 346.947 45.592 345.799 46.74L344.077 48.462V81.18L355.762 84.255V94.095H316.156V84.255L325.996 81.18V40.959L316.156 38.499V28.659Z" fill="#333333"/>
<path d="M443.49 93.234L419.136 94.095L416.922 86.1C416.184 86.756 415.2 87.617 413.97 88.683C412.74 89.667 410.362 91.02 406.836 92.742C403.392 94.464 400.112 95.325 396.996 95.325C391.01 95.325 386.336 93.644 382.974 90.282C379.612 86.92 377.931 82.164 377.931 76.014C377.931 62.484 387.771 55.719 407.451 55.719H416.061V48.954C416.061 42.804 412.904 39.729 406.59 39.729C404.704 39.729 402.859 39.893 401.055 40.221C399.251 40.549 397.898 40.877 396.996 41.205L395.766 41.574L393.921 49.569H382.851L381.99 31.365C391.912 28.085 400.809 26.445 408.681 26.445C418.029 26.445 424.63 28.29 428.484 31.98C432.338 35.588 434.265 41.861 434.265 50.799V81.18L443.49 83.394V93.234ZM395.643 74.169C395.643 79.089 398.062 81.549 402.9 81.549C404.868 81.549 406.918 80.975 409.05 79.827C411.264 78.597 412.986 77.367 414.216 76.137L416.061 74.415V66.174H409.05C404.294 66.174 400.85 66.83 398.718 68.142C396.668 69.372 395.643 71.381 395.643 74.169Z" fill="#333333"/>
<path d="M478.766 95.325C471.96 95.325 467.286 93.152 464.744 88.806C462.202 84.378 460.931 76.711 460.931 65.805V42.804H449.492V31.119L460.931 29.52V12.546L479.012 9.225V29.52H496.232V42.804H479.012V70.602C479.012 74.702 479.463 77.572 480.365 79.212C481.267 80.852 482.989 81.672 485.531 81.672C488.483 81.672 491.722 80.729 495.248 78.843L499.676 87.699C492.46 92.783 485.49 95.325 478.766 95.325Z" fill="#333333"/>
<path d="M518.682 72.57L519.666 81.18C522.372 82 525.734 82.41 529.752 82.41C536.23 82.41 539.469 80.196 539.469 75.768C539.469 73.882 538.362 72.283 536.148 70.971C533.934 69.577 531.228 68.388 528.03 67.404C524.832 66.42 521.634 65.272 518.436 63.96C515.238 62.566 512.532 60.475 510.318 57.687C508.104 54.899 506.997 51.496 506.997 47.478C506.997 40.262 509.416 34.973 514.254 31.611C519.092 28.167 525.119 26.445 532.335 26.445C535.615 26.445 539.141 26.773 542.913 27.429C546.767 28.003 549.801 28.577 552.015 29.151L555.213 30.135C555.049 34.235 554.885 40.385 554.721 48.585H543.897L542.052 40.59C539.92 39.77 537.214 39.36 533.934 39.36C531.392 39.36 529.383 39.934 527.907 41.082C526.431 42.148 525.693 43.665 525.693 45.633C525.693 47.519 526.8 49.118 529.014 50.43C531.31 51.742 534.016 52.89 537.132 53.874C540.33 54.858 543.528 56.006 546.726 57.318C549.924 58.548 552.63 60.516 554.844 63.222C557.14 65.928 558.288 69.249 558.288 73.185C558.288 80.155 555.705 85.608 550.539 89.544C545.455 93.398 538.608 95.325 529.998 95.325C526.554 95.325 522.946 95.079 519.174 94.587C515.402 94.177 512.491 93.767 510.441 93.357L507.366 92.619V72.57H518.682Z" fill="#333333"/>
<path d="M594.353 0L592.139 61.992L577.379 62.607L575.165 0H594.353ZM574.427 84.501C574.427 81.139 575.452 78.474 577.502 76.506C579.634 74.456 582.135 73.431 585.005 73.431C588.367 73.431 590.909 74.415 592.631 76.383C594.435 78.269 595.337 80.975 595.337 84.501C595.337 87.945 594.271 90.692 592.139 92.742C590.089 94.71 587.588 95.694 584.636 95.694C577.83 95.694 574.427 91.963 574.427 84.501Z" fill="#333333"/>
</g>
</svg>
