<svg width="20" height="13" viewBox="0 0 20 13" fill="none" xmlns="http://www.w3.org/2000/svg">
<path d="M8.95157 7.81323H10.0374H11.8373H13.6372V9.61312H11.8373H10.0374H8.95157H8.24017V7.81323H8.95157Z" fill="#333333"/>
<path d="M7.33905 5.11458V3.3147H9.13893V5.11458V5.67353V6.91447H7.33905V5.67353V5.11458Z" fill="#333333"/>
<path d="M7.33894 3.31478H6.44033V5.11466V6.91454H7.33894V12.3142H6.44033H5.53906H4.64045H3.73917V11.4129H2.84057H1.93929V10.5143H0.139404V4.21606H1.93929V3.31478H2.84057V2.41617H3.73917H4.64045V1.51489H5.53906H7.33894H9.13882V3.31478H7.33894Z" fill="#333333"/>
<path d="M19.0368 2.41609H17.237H16.3383V3.3147H15.4371H14.362H13.6372V4.21598H11.8373V5.11458H13.6372H14.5385V6.01319H15.6483H16.3383H17.237V6.91447H19.0368V8.71435H17.237V7.81307H16.3383H15.6483H14.5385V6.91447H13.6372H11.8373H11.059H10.0374V5.60935V4.21598V3.80947V3.21575V2.41609H10.8558H11.8373H13.6372V1.51482H14.362H15.4371V0.616211H15.972H17.237H19.0368V2.41609Z" fill="#333333"/>
<path d="M9.13878 10.5142H10.9387H12.7385V12.314H10.9387H9.13878H8.24017V10.5142H9.13878Z" fill="#333333"/>
</svg>
