<svg width="19" height="11" viewBox="0 0 19 11" fill="none" xmlns="http://www.w3.org/2000/svg">
<path d="M9.40099 0.151123H8.73238H7.60378H5.8039H4.90529V1.04973H3.17227V1.94833H2.26297V2.91647H0.406921V5.54543V6.44403V7.34263V7.4924V8.24124V9.13984H2.20681V10.0384H4.00669V10.9371H4.90529H5.80657H6.70518H7.36308H8.50506H10.3049H12.1048H13.9047H15.7046V9.13717H13.9047H12.1048H11.2062V8.23857H12.1048H13.9047H15.7046H17.5045V6.43868H15.7046H13.9047H12.1048H11.2062V5.54008H12.1048H13.9047H15.7046H17.5045H18.4031V3.74019H17.5045H15.7046H13.9047H12.1048H11.2062V2.84159H12.1048H13.9047H15.7046H17.5045V1.0417H15.7046H13.9047H12.1048H10.7542H10.3049V2.84159V3.74019V5.54008V6.43868H8.50506H7.66529V5.54008H6.70518H5.86541H5.24762H6.70518V3.74019H5.24762H6.70518V2.84159V1.94298H7.60378V3.74287V5.54275H9.40366V3.74287V1.94298V0.755542V0.151123H9.40099Z" fill="#333333"/>
</svg>
