<svg width="15" height="11" viewBox="0 0 15 11" fill="none" xmlns="http://www.w3.org/2000/svg">
<path d="M10.0782 9.15088H10.712H12.5119H13.4105V10.9508H12.5119H10.712H10.0782H8.91211V9.15088H10.0782Z" fill="#333333"/>
<path d="M9.8856 6.44971H10.712H12.5119H14.3118V8.24959H12.5119H10.712H9.8856H8.91211V6.44971H9.8856Z" fill="#333333"/>
<path d="M11.6827 1.05005H12.5117H14.3116V2.84993H12.5117H11.6827H10.7119V1.05005H11.6827Z" fill="#333333"/>
<path d="M12.5117 3.75073H13.2873H14.3116V5.55062H13.2873H12.5117H10.7119V3.75073H12.5117Z" fill="#333333"/>
<path d="M9.81332 1.95101V3.75089V4.35531V5.55077H8.01344V4.35531V3.75089V1.95101H7.11216V5.55077H8.01344V7.35066V9.15054V10.9504H6.21356H4.41367V10.0491H2.61379V9.15054H0.813904V2.84961H2.61379V1.95101H3.51239V1.04973H4.41367H5.31228V0.151123H6.21356H8.01344H8.68204H9.81332V1.95101Z" fill="#333333"/>
</svg>
