<svg width="46" height="14" viewBox="0 0 46 14" fill="none" xmlns="http://www.w3.org/2000/svg">
<path d="M10.9247 4.32754C10.5771 4.21417 10.163 4.15749 9.6824 4.15749C8.46233 4.15749 7.85229 5.02544 7.85229 6.76135C7.85229 8.39098 8.48081 9.2058 9.73786 9.2058C10.0632 9.2058 10.3997 9.14557 10.7472 9.02512C11.1021 8.89758 11.3757 8.77005 11.568 8.64251L11.8453 8.46184L12.4553 9.41836C12.4257 9.4467 12.3813 9.48921 12.3222 9.54589C12.263 9.59549 12.1336 9.6876 11.934 9.82222C11.7417 9.95684 11.5384 10.0738 11.324 10.1729C11.1095 10.2721 10.8396 10.3643 10.5143 10.4493C10.1963 10.5343 9.87465 10.5768 9.5493 10.5768C8.41796 10.5768 7.54173 10.258 6.9206 9.62029C6.30687 8.97552 6 8.04026 6 6.81449C6 5.57456 6.33644 4.60032 7.00933 3.89179C7.68222 3.18325 8.59173 2.82899 9.73786 2.82899C10.1372 2.82899 10.5512 2.8715 10.9801 2.95652C11.409 3.03446 11.738 3.11594 11.9673 3.20097L12.3222 3.3285L12.2667 5.34783H11.1798L10.9247 4.32754Z" fill="white"/>
<path d="M12.9904 2.29758L15.5525 2.21256V9.33333L16.6062 9.59903V10.4493H12.9904V9.59903L13.8777 9.33333V3.36039L12.9904 3.14783V2.29758Z" fill="white"/>
<path d="M16.9978 4.79517L19.5155 4.71014V9.33333L20.292 9.59903V10.4493H16.9978V9.59903L17.8851 9.33333V5.85797L16.9978 5.64541V4.79517ZM17.6743 2.95652C17.6743 2.66602 17.7668 2.43575 17.9516 2.2657C18.1439 2.08857 18.3694 2 18.6282 2C19.2493 2 19.5599 2.31884 19.5599 2.95652C19.5599 3.25411 19.4638 3.49147 19.2715 3.6686C19.0867 3.83865 18.8722 3.92367 18.6282 3.92367C18.325 3.92367 18.0884 3.84219 17.9184 3.67923C17.7557 3.50918 17.6743 3.26828 17.6743 2.95652Z" fill="white"/>
<path d="M25.5527 8.74879L26.1072 9.65217C25.39 10.2544 24.5951 10.5556 23.7226 10.5556C22.813 10.5556 22.1032 10.3005 21.593 9.79034C21.0902 9.28019 20.8387 8.57166 20.8387 7.66473C20.8387 6.7153 21.1049 5.96779 21.6373 5.42222C22.1771 4.87665 22.9277 4.60386 23.8889 4.60386C24.1699 4.60386 24.4731 4.63575 24.7984 4.69952C25.1238 4.7562 25.3789 4.81642 25.5638 4.88019L25.83 4.97585L25.7745 6.70821H24.7763L24.621 5.943C24.4065 5.88631 24.1514 5.85797 23.8557 5.85797C23.4416 5.85797 23.1199 5.99259 22.8907 6.26184C22.6689 6.52399 22.5579 6.92077 22.5579 7.45217C22.5579 8.05443 22.6726 8.51498 22.9018 8.83382C23.1384 9.15266 23.4859 9.31208 23.9444 9.31208C24.0923 9.31208 24.2328 9.30145 24.3659 9.28019C24.499 9.25185 24.6284 9.21288 24.7541 9.16328C24.8798 9.11369 24.9759 9.07118 25.0425 9.03575C25.1164 9.00032 25.2125 8.94718 25.3308 8.87633C25.4565 8.80547 25.5305 8.76296 25.5527 8.74879Z" fill="white"/>
<path d="M26.8565 9.62029C26.8565 9.32979 26.9489 9.09952 27.1337 8.92947C27.326 8.75233 27.5515 8.66377 27.8103 8.66377C28.1135 8.66377 28.3427 8.74879 28.498 8.91884C28.6607 9.0818 28.742 9.31562 28.742 9.62029C28.742 9.91787 28.6496 10.1552 28.4647 10.3324C28.2799 10.5024 28.0543 10.5874 27.7882 10.5874C27.485 10.5874 27.2521 10.506 27.0894 10.343C26.9341 10.1729 26.8565 9.93205 26.8565 9.62029Z" fill="white"/>
<path d="M29.6593 2.29758L32.2215 2.21256V9.33333L33.2752 9.59903V10.4493H29.6593V9.59903L30.5467 9.33333V3.36039L29.6593 3.14783V2.29758Z" fill="white"/>
<path d="M35.9516 10.4599L33.9773 5.78357L33.3894 5.61353V4.76328L36.3509 4.71014V5.61353L35.7297 5.71981L36.7169 8.69565L37.6597 5.75169L37.0164 5.61353V4.76328L40 4.71014V5.61353L39.3123 5.75169L37.6819 10.1092C37.5192 10.5272 37.3639 10.8779 37.216 11.1614C37.0755 11.4519 36.887 11.7494 36.6503 12.0541C36.4137 12.3659 36.129 12.5997 35.7963 12.7556C35.4635 12.9185 35.0864 13 34.665 13L33.5891 12.915L33.7444 11.7778H34.4653C34.6723 11.7778 34.8609 11.7317 35.031 11.6396C35.2084 11.5546 35.3563 11.4271 35.4746 11.257C35.6003 11.094 35.6928 10.9594 35.7519 10.8531C35.8111 10.7469 35.8776 10.6158 35.9516 10.4599Z" fill="white"/>
</svg>
