<svg width="85" height="48" viewBox="0 0 85 48" fill="none" xmlns="http://www.w3.org/2000/svg">
<g opacity="0.4">
<path d="M18.3889 47L5.25887 8.71502L0.838867 6.89502V1.50002L20.9889 1.17502V6.89502L16.1789 8.78002L22.1589 27.565L24.2389 35.56L26.3189 27.89L32.7539 8.84502L27.8139 6.89502V1.50002L47.2489 1.17502V6.89502L42.5039 8.84502L28.7889 47H18.3889Z" fill="#333333"/>
<path d="M58.9174 32.895L59.8924 38.355C61.6257 39.265 63.7491 39.72 66.2624 39.72C68.4724 39.72 70.3357 39.265 71.8524 38.355C73.3691 37.4017 74.1274 36.1017 74.1274 34.455C74.1274 33.285 73.5857 32.2667 72.5024 31.4C71.4191 30.5333 70.0541 29.8617 68.4074 29.385C66.8041 28.9084 65.049 28.28 63.1424 27.5C61.2357 26.6767 59.459 25.81 57.8124 24.9C56.209 23.9467 54.8657 22.56 53.7824 20.74C52.6991 18.8767 52.1574 16.6884 52.1574 14.175C52.1574 9.79835 53.674 6.41835 56.7074 4.03502C59.784 1.60835 63.7707 0.39502 68.6674 0.39502C70.8341 0.39502 73.1091 0.611684 75.4924 1.04502C77.8757 1.47835 79.7174 1.91168 81.0174 2.34502L82.9674 2.99502L82.6424 14.825H76.6624L75.0374 9.30001C73.0874 8.65001 71.1807 8.32502 69.3174 8.32502C67.1074 8.32502 65.3957 8.75835 64.1824 9.62502C63.0124 10.4917 62.4274 11.5967 62.4274 12.94C62.4274 14.11 62.969 15.1284 64.0524 15.995C65.1357 16.8617 66.4791 17.555 68.0824 18.075C69.7291 18.5517 71.4841 19.18 73.3474 19.96C75.2541 20.74 77.0091 21.585 78.6124 22.495C80.2591 23.405 81.6241 24.7484 82.7074 26.525C83.7907 28.3017 84.3324 30.3817 84.3324 32.765C84.3324 37.4883 82.6857 41.1933 79.3924 43.88C76.1424 46.5233 71.9391 47.845 66.7824 47.845C64.6157 47.845 62.319 47.6284 59.8924 47.195C57.4657 46.805 55.5807 46.3934 54.2374 45.96L52.2874 45.375V32.895H58.9174Z" fill="#333333"/>
</g>
</svg>
